<?xml version="1.0" encoding="UTF-8"?>
<svg id="Capa_2" data-name="Capa 2" xmlns="http://www.w3.org/2000/svg" viewBox="0 0 417.98 596.6">
  <defs>
    <style>
      .cls-1 {
        fill: #6b9fd5;
      }

      .cls-1, .cls-2 {
        stroke-width: 0px;
      }

      .cls-2 {
        fill: #d7d4d2;
      }
    </style>
  </defs>
  <g id="Capa_1-2" data-name="Capa 1">
    <polygon class="cls-2" points="32.27 568.39 0 596.6 .06 1.83 208.98 195.04 417.98 0 417.98 44.15 143.38 300.43 143.38 256.28 208.98 195.04 185.34 217.13 32.27 74.27 32.27 568.39"/>
    <polygon class="cls-1" points="307.88 202.81 417.98 100.21 417.98 72.99 307.79 175.83 307.88 202.81"/>
    <polygon class="cls-2" points="307.79 257.15 385.71 184.43 385.71 157.21 307.79 229.93 307.79 257.15"/>
    <polygon class="cls-2" points="417.98 596.6 417.98 128.99 385.71 157.21 385.71 568.39 417.98 596.6"/>
    <polygon class="cls-2" points="208.99 421.53 310.47 326.82 310.47 282.67 208.99 377.38 107.51 282.67 107.51 326.82 208.99 421.53"/>
    <polygon class="cls-2" points="310.47 498.97 342.74 527.19 342.74 254.46 310.47 282.67 310.47 498.97"/>
    <polygon class="cls-2" points="75.24 527.19 107.51 498.97 107.51 282.67 75.24 254.46 75.24 527.19"/>
    <polygon class="cls-1" points="232.75 247.27 265.95 276.07 232.75 304.88 232.75 247.27"/>
  </g>
</svg>